<?xml version="1.0" encoding="UTF-8" standalone="no"?>
<svg width="18px" height="20px" viewBox="0 0 18 20" version="1.1" xmlns="http://www.w3.org/2000/svg" xmlns:xlink="http://www.w3.org/1999/xlink">
    <!-- Generator: Sketch 3.8.3 (29802) - http://www.bohemiancoding.com/sketch -->
    <title>connected_not</title>
    <desc>Created with Sketch.</desc>
    <defs></defs>
    <g id="Page-1" stroke="none" stroke-width="1" fill="none" fill-rule="evenodd">
        <g id="connected_not" transform="translate(-3.000000, -2.000000)">
            <g id="Group">
                <polygon id="Shape" points="0 0 24 0 24 24 0 24"></polygon>
                <path d="M11.2061638,14.0364768 L8.91,12.7 C8.96,12.47 9,12.24 9,12 C9,11.76 8.96,11.53 8.91,11.3 L11.1599183,9.98834547 L9.89825168,8.72667881 L8.04,9.81 C7.5,9.31 6.79,9 6,9 C4.34,9 3,10.34 3,12 C3,13.66 4.34,15 6,15 C6.79,15 7.5,14.69 8.04,14.19 L9.94159589,15.3010448 L11.2061638,14.0364768 Z M14.7818173,16.1176777 L16.04,16.85 C16.56,16.38 17.24,16.08 18,16.08 C19.61,16.08 20.92,17.39 20.92,19 C20.92,20.61 19.61,21.92 18,21.92 C16.39,21.92 15.08,20.61 15.08,19 C15.08,18.78 15.11,18.56 15.16,18.35 L13.5122344,17.3872605 L14.7818173,16.1176777 Z M14.7334687,7.90504162 L15.96,7.19 C16.5,7.69 17.21,8 18,8 C19.66,8 21,6.66 21,5 C21,3.34 19.66,2 18,2 C16.34,2 15,3.34 15,5 C15,5.24 15.04,5.47 15.09,5.7 L13.4718021,6.64337496 L14.7334687,7.90504162 Z" id="Combined-Shape" fill="#000000"></path>
            </g>
        </g>
    </g>
</svg>